<svg width="23" height="26" viewBox="0 0 23 26" fill="none" xmlns="http://www.w3.org/2000/svg">
<path d="M18.7357 24.9569C17.2827 26.3289 15.6964 26.1123 14.1693 25.4623C12.5533 24.798 11.0707 24.7691 9.36567 25.4623C7.23074 26.3578 6.10396 26.0978 4.82893 24.9569C-2.40614 17.6922 -1.33867 6.62916 6.87491 6.22477C8.87642 6.32587 10.2701 7.29352 11.4413 7.38018C13.1908 7.03356 14.8661 6.03702 16.7342 6.167C18.9729 6.34031 20.6631 7.20687 21.775 8.76667C17.1493 11.4674 18.2464 17.4034 22.4867 19.0643C21.6416 21.2307 20.5445 23.3826 18.7209 24.9713L18.7357 24.9569ZM11.2931 6.13811C11.0707 2.91741 13.7542 0.259967 16.838 0C17.2679 3.7262 13.3687 6.49918 11.2931 6.13811Z" fill="#0A0A0A"/>
</svg>
