<svg width="26" height="28" viewBox="0 0 26 28" fill="none" xmlns="http://www.w3.org/2000/svg">
<path d="M26 13.8297C26 6.19179 20.1797 0 13 0C5.82034 0 0 6.19169 0 13.8297C0 20.7324 4.75394 26.4539 10.9688 27.4913V17.8273H7.66797V13.8297H10.9688V10.7828C10.9688 7.31675 12.9096 5.40221 15.879 5.40221C17.3014 5.40221 18.7891 5.67232 18.7891 5.67232V9.07571H17.1498C15.5348 9.07571 15.0312 10.1418 15.0312 11.2355V13.8297H18.6367L18.0604 17.8273H15.0312V27.4913C21.2461 26.4539 26 20.7325 26 13.8297Z" fill="#1877F2"/>
<path d="M18.0607 17.8274L18.6371 13.8298H15.0316V11.2356C15.0316 10.1418 15.5352 9.07585 17.1502 9.07585H18.7894V5.67245C18.7894 5.67245 17.3017 5.40234 15.8793 5.40234C12.9099 5.40234 10.9691 7.31689 10.9691 10.7829V13.8298H7.6683V17.8274H10.9691V27.4914C11.641 27.6035 12.3202 27.6596 13.0003 27.6594C13.6805 27.6597 14.3596 27.6035 15.0316 27.4914V17.8274H18.0607Z" fill="white"/>
</svg>
