<svg width="26" height="28" viewBox="0 0 26 28" fill="none" xmlns="http://www.w3.org/2000/svg">
<path d="M25.4797 14.1368C25.4797 12.9997 25.393 12.1699 25.2052 11.3094H12.9999V16.4417H20.1642C20.0198 17.7171 19.2398 19.6379 17.5064 20.9286L17.4821 21.1004L21.3413 24.2809L21.6086 24.3092C24.0641 21.8967 25.4797 18.3471 25.4797 14.1368Z" fill="#4285F4"/>
<path d="M13 27.6597C16.5099 27.6597 19.4565 26.4303 21.6087 24.3099L17.5066 20.9292C16.4088 21.7436 14.9355 22.3122 13 22.3122C9.56229 22.3122 6.64458 19.8998 5.6045 16.5653L5.45205 16.5791L1.43929 19.8828L1.38681 20.038C3.52453 24.5556 7.91559 27.6597 13 27.6597Z" fill="#34A853"/>
<path d="M5.60439 16.5648C5.32996 15.7043 5.17113 14.7822 5.17113 13.8296C5.17113 12.8768 5.32996 11.9549 5.58995 11.0944L5.58269 10.9111L1.51964 7.55432L1.3867 7.62159C0.505645 9.49629 9.15527e-05 11.6015 9.15527e-05 13.8296C9.15527e-05 16.0577 0.505645 18.1628 1.3867 20.0375L5.60439 16.5648Z" fill="#FBBC05"/>
<path d="M13 5.3474C15.441 5.3474 17.0876 6.46912 18.0266 7.40653L21.6954 3.59569C19.4421 1.3676 16.5099 0 13 0C7.91559 0 3.52453 3.10395 1.38681 7.62157L5.59006 11.0944C6.64458 7.75992 9.56229 5.3474 13 5.3474Z" fill="#EB4335"/>
</svg>
