<svg width="101" height="28" viewBox="0 0 101 28" fill="none" xmlns="http://www.w3.org/2000/svg">
<g clip-path="url(#clip0_285_5381)">
<path d="M39.1602 23.6013V12.2004H42.4443L48.6842 20.2318H47.8427V12.2004H51.0653V23.6013H47.7606L41.5617 15.5536H42.3827V23.6013H39.1602Z" fill="#C02120"/>
<path d="M76.6349 21.141C75.4863 24.285 68.9169 23.9008 66.3789 22.3735C66.7022 21.6497 67.0418 21.0017 67.4612 20.2982C68.994 21.1085 71.6902 21.7728 73.2771 20.976C73.5247 20.8515 73.6911 20.631 73.7303 20.424C73.9914 19.0211 70.7162 19.3836 68.277 18.3095C66.9809 17.7386 66.3897 16.3884 66.8213 15.0004C67.817 11.7982 73.8669 12.1418 76.2628 13.4122C75.9517 14.2009 75.6649 14.7853 75.2699 15.4049C73.7574 14.7907 72.2002 14.4606 70.6485 14.8056C70.1263 14.9219 69.6082 15.4428 69.8449 15.965C70.2535 16.8673 72.9227 16.7469 75.0656 17.5898C76.5402 18.1701 77.1896 19.6258 76.6362 21.1396L76.6349 21.141Z" fill="#C02120"/>
<path d="M86.0938 23.0634C84.768 23.5599 83.4435 23.6262 82.1218 23.3989C80.5728 23.1324 79.3579 21.9865 79.3417 20.3563L79.2903 15.1113L77.4923 15.0315L77.4883 12.8007L79.297 12.7492L79.343 9.77974L82.4614 9.06543L82.5128 12.7208L85.788 12.7952C85.8056 13.6015 85.8219 14.3091 85.7529 15.0505L82.5141 15.0937L82.5331 19.8409C82.5358 20.5674 82.9606 21.0815 83.6614 21.1951C84.3405 21.306 84.9344 21.0909 85.5594 20.8109C85.8219 21.5577 85.9463 22.1908 86.0938 23.062V23.0634Z" fill="#C02120"/>
<path fill-rule="evenodd" clip-rule="evenodd" d="M90.1863 13.2783C92.5279 12.2286 95.2121 12.227 97.4929 13.374C99.2719 14.2696 100.25 15.9905 100.271 17.9521C100.293 19.9138 99.3413 21.7362 97.4675 22.6846H97.4666C94.2021 24.3364 89.0518 23.6434 87.5867 20.2559C86.4126 17.5435 87.4998 14.4824 90.1863 13.2783ZM96.0799 15.7881C94.7933 14.5489 92.7263 14.5556 91.3924 15.7109C90.3873 16.5808 90.1257 18.0048 90.6179 19.2656C91.0333 20.3289 92.1997 21.1473 93.4929 21.1934C94.4399 21.2285 95.3602 21.0488 96.0867 20.3047C97.2945 19.0642 97.3255 16.9867 96.0799 15.7881Z" fill="#C02120"/>
<path fill-rule="evenodd" clip-rule="evenodd" d="M53.1428 17.035C53.8801 12.9334 58.7706 11.6224 62.2785 13.0819C64.6663 14.0762 65.4671 16.4187 65.2033 18.9188L56.3058 18.9481C56.4858 19.772 56.9838 20.343 57.6535 20.7137H57.6515C59.4725 21.7216 61.543 21.325 63.3869 20.3387C63.8185 21.0124 64.1223 21.6689 64.4767 22.4374C62.0932 23.6047 59.3634 23.8765 56.8879 23.1258C54.151 22.2965 52.6395 19.8327 53.1428 17.035ZM59.8205 14.7381C58.2053 14.4487 56.5911 15.3453 56.2785 17.0497L62.1467 17.0253C61.9842 15.6456 61.0028 14.9194 59.8205 14.7381Z" fill="#C02120"/>
<path d="M6.96584 7.91148L6.95096 27.9878L0.0108228 27.9851L0 7.89931L4.94197 5.71445L17.6331 0L20.0209 1.55578V13.4609L19.2768 12.9197L11.5655 7.84655L6.96719 7.91013L6.96584 7.91148Z" fill="#C02120"/>
<path d="M31.0554 7.67066C31.1744 14.3619 31.1879 21.3115 31.0662 27.9729L23.6755 28L11.4688 20.8934L11.4769 13.2945L24.5779 21.743C24.6117 15.8595 24.6645 9.97457 24.7335 4.08966L24.8647 4.14513L31.0554 7.66931V7.67066Z" fill="#C02120"/>
</g>
<defs>
<clipPath id="clip0_285_5381">
<rect width="100.269" height="28" fill="white"/>
</clipPath>
</defs>
</svg>
