<svg width="120" height="120" viewBox="0 0 120 120" fill="none" xmlns="http://www.w3.org/2000/svg">
<path d="M25.0043 45.3228H28.1042V73.9214C28.1042 75.2963 29.2291 76.4213 30.604 76.4213H40.6286V62.4219C40.6286 57.3222 44.8033 53.1474 49.903 53.1474C55.0278 53.1474 59.1777 57.3222 59.1777 62.4219V76.4213H69.2022C70.6021 76.4213 71.7021 75.2963 71.7021 73.9214V45.3228H74.8019C75.8018 45.3228 76.7019 44.7228 77.1018 43.8229C77.5018 42.8978 77.3018 41.8229 76.6268 41.098L51.7281 14.7243C50.7781 13.7242 49.0282 13.7242 48.0782 14.7243L23.2043 41.098C22.5044 41.8229 22.3294 42.8978 22.7293 43.8229C23.1044 44.7228 24.0043 45.3228 25.0043 45.3228Z" fill="#C02121"/>
<path d="M49.9038 99.8203C58.9035 99.8203 67.878 97.3705 75.8276 92.5457L94.3077 111.026L111.007 94.3268L92.5268 75.8465C97.2516 68.0968 99.8266 59.2222 99.8266 49.9226C99.8266 36.5983 94.6518 24.0489 85.2022 14.6243C75.7777 5.1998 63.2533 0 49.9038 0C36.5794 0 24.0301 5.1998 14.6055 14.6243C-4.86851 34.0984 -4.86851 65.7719 14.6055 85.2211C24.3301 94.9705 37.1295 99.8203 49.9038 99.8203ZM18.1304 18.1492C26.6299 9.67454 37.9044 4.99977 49.9038 4.99977C61.9032 4.99977 73.1777 9.67454 81.6774 18.1492C90.152 26.6487 94.8268 37.9232 94.8268 49.9226C94.8268 61.9222 90.152 73.1967 81.6774 81.6962C64.1532 99.1953 35.6545 99.2204 18.1304 81.6962C0.631264 64.172 0.631264 35.6734 18.1304 18.1492Z" fill="#C02121"/>
<path d="M114.541 97.8617L97.8418 114.561L99.8507 116.569C102.151 118.844 105.175 119.994 108.175 119.994C111.2 119.994 114.225 118.844 116.5 116.544C118.725 114.345 119.95 111.37 120 108.17C120 105.095 118.725 102.045 116.525 99.8452L114.541 97.8617Z" fill="#C02121"/>
</svg>
