<svg width="120" height="99" viewBox="0 0 120 99" fill="none" xmlns="http://www.w3.org/2000/svg">
<path fill-rule="evenodd" clip-rule="evenodd" d="M19.9078 98.4147H9.26961C8.58206 98.4147 8.01953 97.8522 8.01953 97.1646V70.2812C8.01953 69.5937 8.58206 69.0311 9.26961 69.0311H19.9078C20.5953 69.0311 21.1578 69.5937 21.1578 70.2812V97.1646C21.1578 97.8522 20.5953 98.4147 19.9078 98.4147ZM19.9078 51.3988H9.26961C8.58206 51.3988 8.01953 50.8362 8.01953 50.1487V43.8233C8.01953 43.1358 8.58206 42.5732 9.26961 42.5732H19.9078C20.5953 42.5732 21.1578 43.1358 21.1578 43.8233V50.1487C21.1578 50.8362 20.5953 51.3988 19.9078 51.3988Z" fill="#C02121"/>
<path fill-rule="evenodd" clip-rule="evenodd" d="M35.734 71.5314H1.25008C0.562533 71.5314 0 70.9688 0 70.2813V50.1488C0 49.4612 0.562533 48.8987 1.25008 48.8987H35.734C36.084 48.8987 36.4215 49.0487 36.659 49.3112L45.7846 59.3807C46.2159 59.8557 46.2159 60.5807 45.7846 61.0621L36.659 71.1253C36.4215 71.3878 36.084 71.5378 35.734 71.5378V71.5314ZM31.515 57.7305H7.35657C6.66902 57.7305 6.10648 57.1679 6.10648 56.4804C6.10648 55.7928 6.66902 55.2303 7.35657 55.2303H31.515C32.2025 55.2303 32.765 55.7928 32.765 56.4804C32.765 57.1679 32.2025 57.7305 31.515 57.7305ZM31.515 65.1935H7.35657C6.66902 65.1935 6.10648 64.631 6.10648 63.9434C6.10648 63.2559 6.66902 62.6934 7.35657 62.6934H31.515C32.2025 62.6934 32.765 63.2559 32.765 63.9434C32.765 64.631 32.2025 65.1935 31.515 65.1935Z" fill="#C02121"/>
<path fill-rule="evenodd" clip-rule="evenodd" d="M36.3657 46.4481L71.3488 18.027L107.87 47.6913C108.238 47.9914 108.632 48.2601 109.045 48.4976V97.1505C109.045 97.838 108.482 98.4006 107.795 98.4006H66.3919V65.9424C66.3919 65.2549 65.8294 64.6923 65.1418 64.6923H49.672C48.9844 64.6923 48.4219 65.2549 48.4219 65.9424C48.4219 66.63 48.9844 67.1925 49.672 67.1925H63.8916V98.401H46.7465V70.2183C46.7465 69.5307 46.184 68.9682 45.4964 68.9682C44.8089 68.9682 44.2463 69.5307 44.2463 70.2183V98.401H34.9083C34.2207 98.401 33.6582 97.8384 33.6582 97.1509V74.0181H35.7396C36.7959 74.0181 37.8086 73.5681 38.5148 72.7868L47.6404 62.7236C48.9342 61.2922 48.9342 59.1171 47.6404 57.6858L38.5148 47.6163C37.9461 46.9913 37.1898 46.5788 36.3646 46.4413L36.3657 46.4481ZM78.2693 55.4299H64.4309C62.5058 55.4299 60.9369 53.8611 60.9369 51.9359V38.0976C60.9369 36.1725 62.5058 34.6036 64.4309 34.6036H78.2693C80.1944 34.6036 81.7633 36.1725 81.7633 38.0976V51.9359C81.7633 53.861 80.1944 55.4299 78.2693 55.4299ZM64.4309 37.1039C63.8809 37.1039 63.4371 37.5477 63.4371 38.0977V43.7669H70.1001V37.1039L64.4309 37.1039ZM72.6003 43.7669H79.2632V38.0977C79.2632 37.5477 78.8195 37.1039 78.2694 37.1039H72.6003L72.6003 43.7669ZM63.4371 46.2671V51.9363C63.4371 52.4863 63.8809 52.9301 64.4309 52.9301H70.1001V46.2671L63.4371 46.2671ZM72.6003 52.9301H78.2694C78.8195 52.9301 79.2632 52.4863 79.2632 51.9363V46.2671H72.6002L72.6003 52.9301ZM97.2083 86.8075H74.9748C74.2873 86.8075 73.7247 86.245 73.7247 85.5574V65.9562C73.7247 65.2686 74.2873 64.7061 74.9748 64.7061H97.2083C97.8958 64.7061 98.4584 65.2686 98.4584 65.9562V85.5574C98.4584 86.2512 97.8958 86.8075 97.2083 86.8075ZM76.2261 84.3074H95.9586V67.2054H76.2261V84.3074ZM60.0186 84.6324C59.3311 84.6324 58.7685 84.0698 58.7685 83.3823V79.7384C58.7685 79.0508 59.3311 78.4883 60.0186 78.4883C60.7062 78.4883 61.2687 79.0508 61.2687 79.7384V83.3823C61.2687 84.0698 60.7062 84.6324 60.0186 84.6324Z" fill="#C02121"/>
<path fill-rule="evenodd" clip-rule="evenodd" d="M109.443 45.7616L71.3464 14.8156L33.2495 45.7616C30.4868 48.0117 26.3928 47.5929 24.1427 44.8241C21.8862 42.0488 22.3051 37.9737 25.0802 35.7172L67.2574 1.44616C69.6139 -0.485171 73.0828 -0.478931 75.4393 1.44616L117.61 35.7172C120.385 37.9737 120.804 42.0488 118.548 44.8241C116.291 47.5993 112.204 48.0118 109.441 45.7616H109.443Z" fill="#C02121"/>
</svg>
