<svg width="36" height="36" viewBox="0 0 36 36" fill="none" xmlns="http://www.w3.org/2000/svg">
<path fill-rule="evenodd" clip-rule="evenodd" d="M10.3353 1.88697C8.84803 1.90922 7.59426 1.97328 6.54729 2.17685C5.44267 2.39162 4.49828 2.77405 3.71188 3.48181C2.84526 4.26177 2.39515 5.23441 2.15873 6.3928C1.93473 7.49033 1.88945 8.82559 1.87845 10.4112C1.87617 10.4405 1.875 10.4701 1.875 10.5C1.875 10.5251 1.87582 10.55 1.87744 10.5747C1.875 11.0227 1.875 11.4974 1.875 11.9978V21.015C1.875 22.0398 1.875 22.9606 1.89675 23.7787C1.88248 23.8503 1.875 23.9243 1.875 24C1.875 24.1021 1.88859 24.2009 1.91406 24.2949C2.00468 26.5033 2.31366 28.2598 3.71188 29.5182C4.49828 30.2259 5.44267 30.6084 6.54729 30.8232C7.59426 31.0267 8.84804 31.0908 10.3353 31.113C10.3891 31.1209 10.4441 31.125 10.5 31.125C10.5458 31.125 10.591 31.1223 10.6353 31.1169C11.3533 31.125 12.1392 31.125 12.9944 31.125H16.875V31.5C16.875 32.9497 18.0503 34.125 19.5 34.125H23.0056C23.8608 34.125 24.6467 34.125 25.3647 34.1169C25.409 34.1223 25.4542 34.125 25.5 34.125C25.5559 34.125 25.6109 34.1209 25.6647 34.113C27.152 34.0908 28.4057 34.0267 29.4527 33.8232C30.5573 33.6084 31.5017 33.2259 32.2881 32.5182C33.6863 31.2598 33.9953 29.5033 34.0859 27.2949C34.1114 27.2009 34.125 27.1021 34.125 27C34.125 26.9243 34.1175 26.8503 34.1032 26.7787C34.125 25.9606 34.125 25.0398 34.125 24.0151V14.9969C34.125 14.4968 34.125 14.0224 34.1226 13.5747C34.1242 13.55 34.125 13.5251 34.125 13.5C34.125 13.4701 34.1238 13.4405 34.1215 13.4112C34.1105 11.8256 34.0653 10.4903 33.8413 9.3928C33.6048 8.23441 33.1547 7.26177 32.2881 6.48181C31.5017 5.77405 30.5573 5.39162 29.4527 5.17685C28.4057 4.97328 27.152 4.90922 25.6647 4.88697C25.6109 4.87908 25.5559 4.875 25.5 4.875C25.4542 4.875 25.409 4.87774 25.3647 4.88306C24.6466 4.875 23.8607 4.875 23.0053 4.875H19.125V4.5C19.125 3.05025 17.9498 1.875 16.5 1.875H12.9948C12.1394 1.875 11.3534 1.875 10.6353 1.88306C10.591 1.87774 10.5458 1.875 10.5 1.875C10.4441 1.875 10.3891 1.87908 10.3353 1.88697ZM19.125 7.125L19.125 12.375L24.375 12.375V7.12642C23.9423 7.12501 23.4849 7.125 23 7.125H19.125ZM16.875 4.5C16.875 4.29289 16.7071 4.125 16.5 4.125H13C12.5151 4.125 12.0577 4.12501 11.625 4.12642V9.375L16.875 9.375L16.875 4.5ZM16.875 11.625V22.875H4.13101C4.12505 22.3071 4.125 21.6857 4.125 21V12C4.125 11.8729 4.125 11.7479 4.12504 11.625L16.875 11.625ZM4.14369 9.375L9.375 9.375V4.16061C8.39221 4.19508 7.61424 4.26153 6.97672 4.38549C6.13316 4.5495 5.60951 4.80101 5.21705 5.15423C4.80303 5.52685 4.53244 6.01393 4.36329 6.84274C4.22955 7.49802 4.16953 8.3127 4.14369 9.375ZM4.22089 25.125L9.375 25.125L9.375 28.8394C8.39221 28.8049 7.61424 28.7385 6.97672 28.6145C6.13316 28.4505 5.60951 28.199 5.21705 27.8458C4.65898 27.3435 4.35627 26.6302 4.22089 25.125ZM16.875 25.125V28.875H13C12.5151 28.875 12.0577 28.875 11.625 28.8736V25.125L16.875 25.125ZM26.625 7.16061V12.375L31.8563 12.375C31.8305 11.3127 31.7705 10.498 31.6367 9.84274C31.4676 9.01393 31.197 8.52685 30.783 8.15423C30.3905 7.80101 29.8668 7.5495 29.0233 7.38549C28.3858 7.26153 27.6078 7.19508 26.625 7.16061ZM31.875 14.625H19.125V25.875H31.869C31.875 25.3071 31.875 24.6857 31.875 24V15C31.875 14.8729 31.875 14.7479 31.875 14.625ZM24.375 28.125H19.125V31.5C19.125 31.7071 19.2929 31.875 19.5 31.875H23C23.4849 31.875 23.9423 31.875 24.375 31.8736L24.375 28.125ZM31.7791 28.125H26.625L26.625 31.8394C27.6078 31.8049 28.3858 31.7385 29.0233 31.6145C29.8668 31.4505 30.3905 31.199 30.783 30.8458C31.341 30.3435 31.6437 29.6302 31.7791 28.125Z" fill="#C02120"/>
</svg>
